<?xml version="1.0" encoding="UTF-8" standalone="no"?>
<svg width="389px" height="195px" viewBox="0 0 389 195" version="1.1" xmlns="http://www.w3.org/2000/svg" xmlns:xlink="http://www.w3.org/1999/xlink" xmlns:sketch="http://www.bohemiancoding.com/sketch/ns">
    <!-- Generator: Sketch 3.0.3 (7892) - http://www.bohemiancoding.com/sketch -->
    <title>Output 5</title>
    <desc>Created with Sketch.</desc>
    <defs>
        <filter x="-50%" y="-50%" width="200%" height="200%" filterUnits="objectBoundingBox" id="filter-1">
            <feOffset dx="0" dy="1" in="SourceAlpha" result="shadowOffsetInner1"></feOffset>
            <feGaussianBlur stdDeviation="1.5" in="shadowOffsetInner1" result="shadowBlurInner1"></feGaussianBlur>
            <feComposite in="shadowBlurInner1" in2="SourceAlpha" operator="arithmetic" k2="-1" k3="1" result="shadowInnerInner1"></feComposite>
            <feColorMatrix values="0 0 0 0 0   0 0 0 0 0   0 0 0 0 0  0 0 0 0.35 0" in="shadowInnerInner1" type="matrix" result="shadowMatrixInner1"></feColorMatrix>
            <feMerge>
                <feMergeNode in="SourceGraphic"></feMergeNode>
                <feMergeNode in="shadowMatrixInner1"></feMergeNode>
            </feMerge>
        </filter>
    </defs>
    <g id="Page-1" stroke="none" stroke-width="1" fill="none" fill-rule="evenodd" sketch:type="MSPage">
        <g id="Output-5" sketch:type="MSLayerGroup" transform="translate(1.000000, 3.000000)">
            <rect id="Rectangle-23" stroke="#B0B0B0" stroke-width="2" fill="#F6F6F6" sketch:type="MSShapeGroup" x="0" y="79" width="387" height="31" rx="4"></rect>
            <path d="M350,93.4952024 L349.875645,77 C349.662179,76.1672574 349.185937,75.439296 348.508663,74.8680334 L273.491337,3.13196659 C272.11541,1.40222921 269.210961,0 266.995089,0 L120.004911,0 C117.79306,0 114.886334,1.40003782 113.508663,3.13196659 C113.508663,3.13196659 38.4704213,74.894459 38.4601431,74.9076426 C37.5685997,75.6400695 37,76.7500152 37,77.9904048 L37,94.5 L37,111.009595 C37,112.249985 37.5685997,113.359931 38.4601431,114.092357 C38.4704213,114.105541 113.508663,185.868033 113.508663,185.868033 C114.886334,187.599962 117.79306,189 120.004911,189 L266.995089,189 C269.210961,189 272.11541,187.597771 273.491337,185.868033 L348.508663,114.131967 C349.185937,113.560704 349.662179,112.832743 349.875645,112 L350,95.5047976 L350,94.5 L350,93.4952024 Z" id="Rectangle-22" stroke="#1E22AA" stroke-width="6" fill="#FFFFFF" sketch:type="MSShapeGroup"></path>
            <text id="Red-LED" fill="white" filter="url(#filter-1)" sketch:type="MSTextLayer" font-family="Helvetica Neue" font-size="36" font-weight="420" sketch:alignment="middle" letter-spacing="-1">
                <tspan x="123.65" y="108" fill="#373737">Red LED</tspan>
            </text>
        </g>
    </g>
</svg>